HIERARCHY
ROOT Hips
{
	OFFSET 0.00000 0.00000 0.00000
	CHANNELS 6 Xposition Yposition Zposition Yrotation Zrotation Xrotation 
	JOINT Lumbar
	{
		OFFSET 0 0 0
		CHANNELS 3 Zrotation Xrotation Yrotation
		JOINT Neck
		{
			OFFSET 0.00 0.2701 0.00
			CHANNELS 3 Zrotation Xrotation Yrotation
			End Site
			{
				OFFSET 0.00 0.1379 0.00
			}
		}
		JOINT RightShoulder
		{
			OFFSET 0.0119 0.2289 0.1181
			CHANNELS 3 Zrotation Xrotation Yrotation
			JOINT RightElbow
			{
				OFFSET 0.00 -0.1475 0.00
				CHANNELS 2 Zrotation Yrotation
				JOINT RightWrist
				{
					OFFSET 0.00 -0.1605 0.00
					CHANNELS 2 Zrotation Xrotation
					End Site
					{
						OFFSET 0.0040 -0.1068 0.0006
					}
				}
			}
		}
		JOINT LeftShoulder
		{
			OFFSET 0.0119 0.2289 -0.1181
			CHANNELS 3 Zrotation Xrotation Yrotation
			JOINT LeftElbow
			{
				OFFSET 0.00 -0.1475 0.00
				CHANNELS 2 Zrotation Yrotation
				JOINT LeftWrist
				{
					OFFSET 0.00 -0.1605 0.00
					CHANNELS 2 Zrotation Xrotation
					End Site
					{
						OFFSET 0.0040 -0.1068 -0.0006
					}
				}
			}
		}
	}
	JOINT RightHip
	{
		OFFSET 0.0316 -0.0424 0.0458
		CHANNELS 3 Zrotation Xrotation Yrotation
		JOINT RightKnee
		{
			OFFSET 0.00 -0.2438 0.00
			CHANNELS 1 Zrotation
			JOINT RightAnkle
			{
				OFFSET 0.00 -0.2449 0.00
				CHANNELS 3 Zrotation Xrotation Yrotation
				End Site
				{
					OFFSET 0.1237 -0.0542 0.0051
				}
			}
		}
	}
	JOINT LeftHip
	{
		OFFSET 0.0316 -0.0424 -0.0458
		CHANNELS 3 Zrotation Xrotation Yrotation
		JOINT LeftKnee
		{
			OFFSET 0.00 -0.2438 0.00
			CHANNELS 1 Zrotation
			JOINT LeftAnkle
			{
				OFFSET 0.00 -0.2449 0.00
				CHANNELS 3 Zrotation Xrotation Yrotation
				End Site
				{
					OFFSET 0.1237 -0.0542 -0.0051
				}
			}
		}
	}
}
MOTION
Frames: 22
Frame Time: 0.02
-0.84073 -0.00128 -0.11694 -188.73024 -36.31307 -1.73979 45.77216 -1.95685 -8.75981 -15.31407 9.76187 -0.83078 14.41723 -6.58583 9.00675 112.17499 75.41817 -8.34628 -0.36232 -5.95257 12.44927 -25.14828 112.50432 -92.81683 5.44637 -1.07836 23.55931 -8.08675 -2.3959 -5.37955 -8.17735 -4.88923 -3.34252 19.39953 2.93233 -13.76665 0.52632 -5.84181 38.19848 21.14522
-0.84062 -0.00121 -0.11681 -188.77408 -36.34975 -1.77545 45.76949 -1.92979 -8.82569 -15.44613 9.44526 -0.83078 14.27479 -6.54175 9.82056 112.34919 76.15116 -7.62573 0.26341 -5.7903 12.03048 -24.9055 112.32314 -97.4954 7.30489 -1.60837 23.12035 -8.04953 -0.95938 -4.37462 -6.73381 -8.66319 -5.59978 19.47645 2.94511 -13.79348 0.52636 -5.88282 38.20003 21.14586
-0.84054 -0.00111 -0.11679 -188.79075 -36.38931 -1.81438 45.76564 -1.89689 -8.91071 -15.61015 9.06766 -0.83078 14.07356 -6.38029 10.76076 112.56564 76.16612 -6.80605 1.36756 -5.6709 11.4115 -24.51665 112.10902 -105.21632 10.15874 -2.552 22.58628 -7.99301 0.82063 -3.18429 -4.91234 -13.47939 -8.47496 19.56439 2.97824 -13.85451 0.52635 -5.94558 38.20833 21.14697
-0.84044 -0.00102 -0.11673 -188.82143 -36.42733 -1.85221 45.75703 -1.86656 -8.98314 -15.75377 8.72522 -0.83078 13.89903 -6.29133 11.67041 112.75452 76.68137 -5.99583 2.2175 -5.52108 10.90941 -24.21577 111.91571 -111.14119 12.44379 -3.24714 22.11247 -7.9456 2.42371 -2.11039 -3.3598 -17.72818 -11.00767 19.64766 3.00249 -13.90035 0.52638 -6.00469 38.22335 21.14948
-0.84038 -0.00093 -0.11665 -188.84376 -36.46614 -1.88813 45.77123 -1.83684 -9.07236 -15.92344 8.35002 -0.83078 13.72609 -6.13151 12.47656 112.97891 76.54938 -5.31781 3.20214 -5.41247 10.30504 -23.82977 111.69666 -118.65786 15.18216 -4.1735 21.56072 -7.89593 4.12737 -0.89045 -1.40775 -22.39823 -13.815 19.72931 3.02561 -13.95064 0.52638 -6.04718 38.20878 21.14861
-0.84023 -0.00084 -0.11663 -188.87746 -36.50475 -1.92888 45.73791 -1.80444 -9.1307 -16.04516 8.02956 -0.83078 13.53523 -6.08609 13.52079 113.13904 77.54055 -4.35597 4.03004 -5.23154 9.86084 -23.58257 111.52394 -123.67875 17.23555 -4.73216 21.1522 -7.84671 5.68569 0.06465 -0.1822 -26.40864 -16.18056 19.81778 3.05575 -13.99394 0.52641 -6.11923 38.24478 21.15087
-0.83982 -0.00075 -0.11673 -188.95018 -36.53336 -1.98253 45.56809 -1.76498 -9.10335 -16.03679 7.86927 -0.83078 13.31071 -6.40352 15.23542 113.11475 82.06114 -2.53565 4.27764 -4.82286 9.94103 -23.77309 111.48554 -120.58116 17.05045 -4.0947 21.14773 -7.80357 6.91851 0.25268 -1.20617 -28.59501 -17.31461 19.91283 3.10039 -14.0566 0.52672 -6.35288 38.52559 21.19747
-0.83933 -0.00066 -0.11687 -189.03524 -36.56311 -2.04086 45.35133 -1.72318 -9.04365 -15.97732 7.76725 -0.83078 13.07023 -6.8355 17.17516 113.02379 87.67644 -0.45396 4.35763 -4.34365 10.18327 -24.10438 111.49529 -114.96563 16.16279 -3.08935 21.29384 -7.7617 7.9671 0.16491 -2.9503 -30.03869 -17.95926 20.01592 3.1513 -14.10412 0.52705 -6.60284 38.84116 21.24211
-0.83886 -0.00057 -0.117 -189.11428 -36.59814 -2.09694 45.15965 -1.68311 -8.99572 -15.93429 7.64271 -0.83078 12.83523 -7.20193 18.98362 112.96111 92.62144 1.44331 4.53895 -3.90876 10.32811 -24.35818 111.48431 -110.84375 15.6718 -2.30816 21.38169 -7.71928 8.99104 0.19552 -4.26129 -31.65061 -18.73262 20.1217 3.19925 -14.12474 0.52726 -6.78456 39.06485 21.26205
-0.83843 -0.00048 -0.11713 -189.19434 -36.60927 -2.15389 44.95238 -1.64001 -8.96005 -15.92019 7.49991 -0.83078 12.60351 -7.62154 20.92343 112.90821 98.28955 3.62591 4.63706 -3.42364 10.5634 -24.66348 111.46754 -105.37965 14.89792 -1.30411 21.42428 -7.67592 10.47015 0.26121 -5.9904 -33.99464 -19.91159 20.20166 3.24846 -14.28046 0.5279 -7.20927 39.59205 21.38336
-0.83792 -0.0004 -0.11727 -189.27523 -36.6698 -2.20983 44.76614 -1.60275 -8.8919 -15.83432 7.40903 -0.83078 12.36469 -7.9589 22.63578 112.81884 102.69874 5.26921 4.85421 -3.02569 10.65505 -24.89752 111.47441 -102.03816 14.52149 -0.66709 21.59681 -7.63524 10.97092 0.18704 -7.0441 -34.64767 -20.136 20.33645 3.29617 -14.16171 0.52769 -7.14981 39.51778 21.30144
-0.83717 -0.00034 -0.11745 -189.35815 -36.87176 -2.26403 44.65227 -1.58201 -8.73358 -15.55349 7.45413 -0.83078 12.08658 -8.04356 23.71244 112.64264 103.55977 5.40999 5.5122 -2.88668 10.27978 -24.89515 111.53759 -105.46804 15.51432 -1.16954 22.10411 -7.60038 8.65855 -0.21835 -5.88747 -30.60152 -17.71516 20.62678 3.33902 -13.19256 0.52481 -5.58834 37.57676 20.5851
-0.83634 -0.00029 -0.11766 -189.44093 -37.12241 -2.3166 44.56074 -1.56727 -8.54521 -15.20372 7.5486 -0.83078 11.80643 -8.04218 24.54288 112.43241 103.08918 4.99108 6.28126 -2.83719 9.76124 -24.81814 111.62261 -111.04814 16.90781 -2.04449 22.73541 -7.56852 5.39505 -0.75434 -4.05734 -24.91332 -14.37134 20.97084 3.37989 -11.96428 0.5211 -3.56684 35.06333 19.67688
-0.83556 -0.00024 -0.11785 -189.52232 -37.34728 -2.36846 44.45706 -1.54995 -8.37598 -14.89151 7.61614 -0.83078 11.54318 -8.07839 25.45428 112.23903 103.09516 4.79203 6.94905 -2.74621 9.32915 -24.77913 111.69591 -115.43971 18.04746 -2.7243 23.30158 -7.53619 2.6686 -1.22239 -2.65139 -20.11047 -11.5319 21.28615 3.42101 -10.9191 0.51805 -1.86415 32.94483 18.90635
-0.83474 -0.00019 -0.11806 -189.61096 -37.58755 -2.42667 44.35989 -1.53198 -8.18233 -14.55146 7.70425 -0.83078 11.21253 -8.12248 26.50429 112.03703 103.65599 4.73929 7.82117 -2.65727 8.8118 -24.72676 111.77826 -120.64976 19.46624 -3.50401 23.9086 -7.50008 -0.50471 -1.73318 -0.78156 -14.6956 -8.31811 21.61984 3.46508 -9.60262 0.51398 0.29247 30.26966 17.92746
-0.83397 -0.00013 -0.11825 -189.68341 -37.80735 -2.47117 44.25546 -1.51675 -8.03304 -14.25342 7.76098 -0.83078 11.02122 -8.13128 27.20407 111.84637 102.76313 4.25617 8.30194 -2.58491 8.4368 -24.6839 111.84658 -124.68288 20.40774 -4.16467 24.45977 -7.4726 -2.97307 -2.18618 0.30371 -10.1744 -5.67007 21.92814 3.50251 -8.78353 0.51163 1.62414 28.60351 17.33093
-0.83334 0 -0.11843 -189.71872 -37.95761 -2.47857 44.12143 -1.50812 -8.01171 -14.08999 7.71508 -0.83078 11.22393 -8.03805 26.99837 111.69003 97.90121 2.63082 7.62395 -2.54785 8.48104 -24.67408 111.86844 -125.09249 19.94044 -4.44476 24.81283 -7.46783 -3.24238 -2.41819 -1.04611 -8.53092 -4.82088 22.15118 3.52169 -9.45141 0.51513 0.47213 29.97714 17.88529
-0.83276 0.00015 -0.11859 -189.73623 -38.08545 -2.47216 43.97963 -1.50186 -8.03652 -13.97072 7.63661 -0.83078 11.5667 -7.91701 26.44887 111.54721 91.67104 0.60924 6.55757 -2.52241 8.6737 -24.67752 111.87577 -124.23802 18.98461 -4.58827 25.10842 -7.47175 -2.77273 -2.59445 -3.18605 -7.84561 -4.57329 22.34713 3.53438 -10.61636 0.51964 -1.50694 32.35926 18.81926
-0.83216 0.00029 -0.11875 -189.75699 -38.22466 -2.47178 43.84517 -1.49431 -8.04171 -13.83087 7.57498 -0.83078 11.838 -7.82427 26.05267 111.40253 86.2437 -1.17522 5.7045 -2.48471 8.80426 -24.68213 111.89087 -123.86109 18.24668 -4.76836 25.43685 -7.47191 -2.65278 -2.81064 -4.89217 -6.71984 -4.04555 22.55678 3.55021 -11.52498 0.52382 -3.04813 34.21195 19.55151
-0.83156 0.00045 -0.11897 -189.79843 -38.36193 -2.4723 43.69819 -1.48823 -8.04043 -13.69248 7.50539 -0.83078 12.13678 -7.66034 25.65394 111.24018 79.99909 -3.2279 4.704 -2.48025 8.90997 -24.6552 111.90125 -123.92292 17.5251 -5.06231 25.7362 -7.47126 -2.50543 -2.95851 -6.88964 -5.55733 -3.51369 22.76253 3.56491 -12.56601 0.52979 -4.84146 36.36703 20.41205
-0.83096 0.00056 -0.11907 -189.79224 -38.49562 -2.46781 43.57162 -1.47909 -8.06361 -13.56027 7.44538 -0.83078 12.41846 -7.6419 25.19017 111.11625 75.15814 -4.7987 3.91167 -2.40727 9.10123 -24.69637 111.91845 -122.79808 16.66659 -5.09005 26.08729 -7.47445 -2.22991 -3.24807 -8.47804 -4.72054 -3.14548 22.96916 3.58079 -13.4364 0.52932 -6.30404 38.11151 21.08336
-0.8304 0.00058 -0.11886 -189.66162 -38.64017 -2.4518 43.53398 -1.46503 -8.14578 -13.4523 7.40786 -0.83078 12.56478 -8.00811 24.559 111.10887 74.44884 -5.03047 3.83514 -2.14792 9.52279 -24.93852 111.95128 -118.20818 15.38457 -4.34209 26.53952 -7.4844 -1.7526 -3.81433 -8.73297 -4.55748 -3.08676 23.18743 3.59878 -13.8593 0.53534 -6.72739 38.72311 21.27004
